<?xml version="1.0" standalone="no"?>
<!DOCTYPE svg PUBLIC "-//W3C//DTD SVG 20010904//EN"
 "http://www.w3.org/TR/2001/REC-SVG-20010904/DTD/svg10.dtd">
<svg version="1.0" xmlns="http://www.w3.org/2000/svg"
 width="1024.000000pt" height="1024.000000pt" viewBox="0 0 1024.000000 1024.000000"
 preserveAspectRatio="xMidYMid meet">

<g transform="translate(0.000000,1024.000000) scale(0.100000,-0.100000)"
fill="#000000" stroke="none">
<path d="M5234 8454 c-67 -35 -126 -85 -185 -156 -47 -57 -63 -87 -36 -72 7 4
9 3 4 -2 -5 -5 -13 -9 -19 -9 -18 0 -67 -107 -82 -178 -7 -37 -14 -111 -15
-165 -3 -132 27 -239 124 -442 91 -192 108 -257 109 -420 1 -163 -6 -208 -49
-298 -33 -70 -34 -76 -20 -98 23 -35 63 -31 121 13 61 46 95 84 87 96 -3 6 -2
7 4 4 20 -13 99 98 131 184 30 80 43 168 44 278 0 121 -17 191 -92 379 -102
258 -105 270 -105 412 0 96 5 138 19 180 26 76 62 153 91 196 30 44 32 77 5
104 -28 28 -77 25 -136 -6z m141 -24 c3 -5 1 -10 -4 -10 -6 0 -11 5 -11 10 0
6 2 10 4 10 3 0 8 -4 11 -10z m-138 -392 c-3 -7 -5 -2 -5 12 0 14 2 19 5 13 2
-7 2 -19 0 -25z m-310 -80 c-3 -8 -6 -5 -6 6 -1 11 2 17 5 13 3 -3 4 -12 1
-19z m-10 -120 c-2 -13 -4 -5 -4 17 -1 22 1 32 4 23 2 -10 2 -28 0 -40z m42
-193 l0 -20 -9 20 c-5 11 -9 27 -9 35 -1 13 0 13 9 0 5 -8 9 -24 9 -35z m40
-115 c11 -24 11 -24 -3 -6 -9 11 -16 24 -16 30 0 12 5 7 19 -24z m100 -205 c0
-5 -11 10 -24 35 -13 25 -24 50 -24 55 0 6 11 -10 24 -35 13 -25 24 -49 24
-55z m318 23 c-3 -8 -6 -5 -6 6 -1 11 2 17 5 13 3 -3 4 -12 1 -19z m10 -40
c-3 -8 -6 -5 -6 6 -1 11 2 17 5 13 3 -3 4 -12 1 -19z m-300 -56 c16 -60 15
-77 -1 -32 -19 51 -29 96 -20 87 5 -4 14 -29 21 -55z m310 -34 c-2 -13 -4 -5
-4 17 -1 22 1 32 4 23 2 -10 2 -28 0 -40z m0 -80 c-2 -13 -4 -5 -4 17 -1 22 1
32 4 23 2 -10 2 -28 0 -40z m-290 0 c-3 -8 -6 -5 -6 6 -1 11 2 17 5 13 3 -3 4
-12 1 -19z m10 -201 c-2 -23 -3 -1 -3 48 0 50 1 68 3 42 2 -26 2 -67 0 -90z
m3 -311 c0 -2 -7 -7 -16 -10 -8 -3 -12 -2 -9 4 6 10 25 14 25 6z"/>
<path d="M4302 8012 c-116 -60 -202 -162 -259 -308 -23 -59 -26 -84 -26 -169
1 -126 20 -186 110 -337 88 -149 109 -217 107 -353 -1 -57 -9 -103 -28 -160
-34 -105 -33 -121 5 -144 30 -18 34 -18 66 -3 21 10 32 21 28 30 -3 7 0 10 6
6 6 -3 28 11 50 32 37 36 53 64 27 48 -7 -4 -8 -3 -4 5 4 6 11 9 16 6 11 -7
25 12 65 92 47 94 59 163 52 303 -7 135 -22 188 -89 330 -67 140 -78 181 -74
271 5 86 22 141 72 222 23 38 33 64 29 77 -7 21 -73 80 -90 80 -5 0 -34 -13
-63 -28z m122 -107 c-9 -14 -18 -25 -21 -25 -5 0 5 18 20 38 17 22 18 13 1
-13z m-87 -327 c-3 -7 -5 -2 -5 12 0 14 2 19 5 13 2 -7 2 -19 0 -25z m-279
-199 c-3 -8 -7 -3 -11 10 -4 17 -3 21 5 13 5 -5 8 -16 6 -23z m16 -35 c3 -8 2
-12 -4 -9 -6 3 -10 10 -10 16 0 14 7 11 14 -7z m31 -64 c9 -16 13 -30 11 -30
-3 0 -12 14 -21 30 -9 17 -13 30 -11 30 3 0 12 -13 21 -30z m55 -85 c7 -9 8
-15 2 -15 -5 0 -12 7 -16 15 -3 8 -4 15 -2 15 2 0 9 -7 16 -15z m18 -50 c-3
-3 -9 2 -12 12 -6 14 -5 15 5 6 7 -7 10 -15 7 -18z m319 -27 c-3 -8 -6 -5 -6
6 -1 11 2 17 5 13 3 -3 4 -12 1 -19z m-289 -23 c-3 -3 -9 2 -12 12 -6 14 -5
15 5 6 7 -7 10 -15 7 -18z m299 -112 c-2 -21 -4 -6 -4 32 0 39 2 55 4 38 2
-18 2 -50 0 -70z m-260 -45 c-3 -7 -5 -2 -5 12 0 14 2 19 5 13 2 -7 2 -19 0
-25z m10 -110 c-2 -18 -4 -6 -4 27 0 33 2 48 4 33 2 -15 2 -42 0 -60z m214
-31 c-10 -9 -11 -8 -5 6 3 10 9 15 12 12 3 -3 0 -11 -7 -18z m-234 -89 c-3 -8
-6 -5 -6 6 -1 11 2 17 5 13 3 -3 4 -12 1 -19z m14 -166 c-7 -2 -18 1 -23 6 -8
8 -4 9 13 5 13 -4 18 -8 10 -11z"/>
<path d="M6069 7997 c-24 -13 -44 -29 -44 -35 0 -6 -7 -17 -15 -24 -12 -11
-12 -11 -1 5 7 9 9 17 3 17 -5 0 -39 -31 -75 -69 -105 -112 -150 -235 -146
-401 2 -89 33 -180 93 -274 131 -205 156 -358 91 -553 -26 -78 -27 -84 -11
-108 10 -15 26 -25 40 -25 43 0 154 90 139 113 -3 5 -1 7 5 4 15 -10 67 66
103 152 28 67 33 90 37 196 6 152 -13 234 -92 395 -31 63 -61 142 -68 174 -19
99 11 229 78 336 21 33 6 73 -38 100 -41 25 -45 25 -99 -3z m112 -113 c-11
-15 -21 -24 -21 -20 0 10 34 55 39 51 2 -2 -6 -16 -18 -31z m-74 -256 c-2 -18
-4 -6 -4 27 0 33 2 48 4 33 2 -15 2 -42 0 -60z m-290 -20 c-3 -8 -6 -5 -6 6
-1 11 2 17 5 13 3 -3 4 -12 1 -19z m297 -44 c3 -8 2 -12 -4 -9 -6 3 -10 10
-10 16 0 14 7 11 14 -7z m-307 -96 c-2 -13 -4 -5 -4 17 -1 22 1 32 4 23 2 -10
2 -28 0 -40z m32 -118 c0 -10 -3 -8 -9 5 -12 27 -12 43 0 25 5 -8 9 -22 9 -30z
m101 -184 c0 -6 -7 -1 -15 10 -8 10 -15 23 -15 28 0 6 7 1 15 -10 8 -10 15
-23 15 -28z m20 -36 c6 -11 8 -20 6 -20 -3 0 -10 9 -16 20 -6 11 -8 20 -6 20
3 0 10 -9 16 -20z m307 -2 c-3 -8 -6 -5 -6 6 -1 11 2 17 5 13 3 -3 4 -12 1
-19z m10 -140 c-2 -18 -4 -6 -4 27 0 33 2 48 4 33 2 -15 2 -42 0 -60z m-269
21 c-3 -8 -7 -3 -11 10 -4 17 -3 21 5 13 5 -5 8 -16 6 -23z m9 -41 c-3 -8 -6
-5 -6 6 -1 11 2 17 5 13 3 -3 4 -12 1 -19z m10 -65 c-3 -10 -5 -2 -5 17 0 19
2 27 5 18 2 -10 2 -26 0 -35z m240 -15 c-3 -7 -5 -2 -5 12 0 14 2 19 5 13 2
-7 2 -19 0 -25z m-290 -320 c-3 -7 -5 -2 -5 12 0 14 2 19 5 13 2 -7 2 -19 0
-25z"/>
<path d="M5080 6283 c-177 -27 -274 -101 -354 -268 -27 -57 -34 -191 -12 -245
9 -22 16 -42 16 -44 0 -3 -44 -14 -97 -26 -404 -87 -538 -131 -807 -266 -201
-101 -521 -317 -521 -351 0 -7 -7 -18 -15 -25 -12 -11 -12 -11 -1 5 28 37 -5
14 -84 -58 -99 -89 -251 -261 -249 -281 1 -7 -2 -12 -6 -9 -11 7 -152 -171
-213 -268 -182 -294 -278 -485 -356 -709 -99 -283 -139 -483 -156 -769 l-3
-67 45 -6 c25 -3 1326 -6 2890 -6 l2844 0 -5 93 c-10 156 -18 223 -40 347 -30
171 -101 416 -167 583 -88 221 -351 679 -381 661 -6 -4 -8 -3 -5 4 7 10 -53
93 -87 121 -15 12 -16 12 -10 -5 4 -10 4 -16 0 -13 -4 4 -9 17 -11 29 -5 27
-54 82 -66 74 -5 -3 -6 1 -4 8 7 17 -172 193 -314 310 -11 10 -27 15 -34 12
-8 -3 -20 3 -28 13 -13 16 -12 17 4 4 9 -8 20 -12 22 -9 6 6 -97 88 -110 88
-4 0 -1 -8 6 -17 12 -14 10 -14 -13 1 -32 21 -36 28 -10 19 33 -11 -9 21 -110
85 -94 61 -127 75 -112 50 4 -8 3 -10 -2 -5 -5 5 -9 14 -9 20 0 11 -205 118
-315 165 -114 49 -336 121 -415 136 -136 24 -261 46 -267 46 -4 0 0 19 8 43 9
23 16 78 17 123 2 74 -1 86 -35 155 -66 133 -169 215 -307 245 -67 14 -76 14
-121 7z m23 -20 c-7 -2 -21 -2 -30 0 -10 3 -4 5 12 5 17 0 24 -2 18 -5z m80 0
c-7 -2 -19 -2 -25 0 -7 3 -2 5 12 5 14 0 19 -2 13 -5z m227 -108 c11 -13 10
-14 -4 -9 -9 3 -16 10 -16 15 0 13 6 11 20 -6z m65 -85 c3 -5 -1 -10 -10 -10
-9 0 -13 5 -10 10 3 6 8 10 10 10 2 0 7 -4 10 -10z m36 -76 c5 -15 8 -29 5
-31 -2 -2 -8 10 -14 26 -13 38 -5 41 9 5z m-794 -116 c-3 -7 -5 -2 -5 12 0 14
2 19 5 13 2 -7 2 -19 0 -25z m0 -40 c-3 -8 -6 -5 -6 6 -1 11 2 17 5 13 3 -3 4
-12 1 -19z m22 -73 c0 -5 -4 -3 -9 5 -5 8 -9 22 -9 30 0 16 17 -16 18 -35z
m778 3 c-3 -8 -6 -5 -6 6 -1 11 2 17 5 13 3 -3 4 -12 1 -19z m-850 -84 c-3 -3
-12 -4 -19 -1 -8 3 -5 6 6 6 11 1 17 -2 13 -5z m890 0 c-3 -3 -12 -4 -19 -1
-8 3 -5 6 6 6 11 1 17 -2 13 -5z m320 -60 c-3 -3 -12 -4 -19 -1 -8 3 -5 6 6 6
11 1 17 -2 13 -5z m303 -104 c8 -5 11 -10 5 -10 -5 0 -17 5 -25 10 -8 5 -10
10 -5 10 6 0 17 -5 25 -10z m-2140 -10 c-8 -5 -19 -10 -25 -10 -5 0 -3 5 5 10
8 5 20 10 25 10 6 0 3 -5 -5 -10z m2287 -56 c-3 -3 -12 -4 -19 -1 -8 3 -5 6 6
6 11 1 17 -2 13 -5z m253 -140 c0 -2 -9 0 -20 6 -11 6 -20 13 -20 16 0 2 9 0
20 -6 11 -6 20 -13 20 -16z m35 -22 c-3 -3 -11 0 -18 7 -9 10 -8 11 6 5 10 -3
15 -9 12 -12z m-2045 -35 c-41 -24 -102 -61 -135 -82 -69 -44 -206 -165 -200
-176 3 -4 -3 -13 -13 -20 -15 -13 -16 -12 -3 4 9 12 10 17 2 17 -16 0 -276
-262 -329 -332 -23 -30 -41 -62 -40 -69 2 -7 -3 -13 -11 -14 -18 0 -132 -157
-126 -173 3 -7 1 -10 -4 -7 -18 11 -182 -268 -279 -475 -91 -195 -178 -439
-167 -468 3 -9 3 -13 -2 -9 -4 5 -14 -13 -23 -40 -12 -38 -20 -48 -35 -46 -46
6 -504 3 -519 -3 -20 -8 -20 3 -1 86 55 236 263 651 465 929 30 41 48 76 44
82 -4 7 -3 9 3 6 6 -4 40 28 76 71 36 42 111 122 166 176 55 55 97 104 94 109
-3 6 -1 7 5 3 7 -4 27 4 44 17 155 116 531 312 717 373 75 25 302 82 331 83 8
1 -19 -19 -60 -42z m2146 -28 c3 -6 -5 -3 -20 6 -14 10 -26 19 -26 22 0 7 39
-17 46 -28z m105 -76 c13 -16 12 -17 -3 -4 -10 7 -18 15 -18 17 0 8 8 3 21
-13z m-2821 -47 c0 -2 -7 -7 -16 -10 -8 -3 -12 -2 -9 4 6 10 25 14 25 6z
m3160 -251 c30 -30 52 -55 49 -55 -2 0 -29 25 -59 55 -30 30 -52 55 -49 55 2
0 29 -25 59 -55z m105 -115 c10 -11 16 -20 13 -20 -3 0 -13 9 -23 20 -10 11
-16 20 -13 20 3 0 13 -9 23 -20z m86 -97 c13 -16 12 -17 -3 -4 -10 7 -18 15
-18 17 0 8 8 3 21 -13z m118 -160 l21 -38 -25 30 c-23 28 -31 45 -21 45 2 0
14 -17 25 -37z m127 -205 c8 -16 13 -28 10 -28 -6 0 -46 66 -46 76 0 10 14 -8
36 -48z m28 -54 c3 -8 2 -12 -4 -9 -6 3 -10 10 -10 16 0 14 7 11 14 -7z m46
-88 c0 -6 -7 -1 -15 10 -8 10 -15 23 -15 28 0 6 7 1 15 -10 8 -10 15 -23 15
-28z m-5087 9 c-3 -9 -8 -14 -10 -11 -3 3 -2 9 2 15 9 16 15 13 8 -4z m5125
-82 c29 -63 21 -66 -11 -3 -14 27 -23 50 -18 50 4 0 17 -21 29 -47z m-5215
-98 c-3 -9 -8 -14 -10 -11 -3 3 -2 9 2 15 9 16 15 13 8 -4z m5297 -90 c0 -5
-5 -3 -10 5 -5 8 -10 20 -10 25 0 6 5 3 10 -5 5 -8 10 -19 10 -25z m-4409
-112 c-12 -20 -14 -14 -5 12 4 9 9 14 11 11 3 -2 0 -13 -6 -23z m4446 -5 c-3
-8 -6 -5 -6 6 -1 11 2 17 5 13 3 -3 4 -12 1 -19z m-5084 -83 c-3 -9 -8 -14
-10 -11 -3 3 -2 9 2 15 9 16 15 13 8 -4z m5127 -40 c0 -5 -5 -3 -10 5 -5 8
-10 20 -10 25 0 6 5 3 10 -5 5 -8 10 -19 10 -25z m37 -157 c-3 -7 -5 -2 -5 12
0 14 2 19 5 13 2 -7 2 -19 0 -25z m-5240 -40 c-3 -8 -6 -5 -6 6 -1 11 2 17 5
13 3 -3 4 -12 1 -19z m446 -85 c-23 -2 -64 -2 -90 0 -26 2 -7 3 42 3 50 0 71
-1 48 -3z m4824 -25 c-3 -8 -6 -5 -6 6 -1 11 2 17 5 13 3 -3 4 -12 1 -19z m10
-55 c-3 -10 -5 -4 -5 12 0 17 2 24 5 18 2 -7 2 -21 0 -30z m-5680 -85 c-3 -7
-5 -2 -5 12 0 14 2 19 5 13 2 -7 2 -19 0 -25z m-10 -90 c-3 -7 -5 -2 -5 12 0
14 2 19 5 13 2 -7 2 -19 0 -25z m5720 -30 c-3 -8 -6 -5 -6 6 -1 11 2 17 5 13
3 -3 4 -12 1 -19z m-5730 -90 c-2 -13 -4 -3 -4 22 0 25 2 35 4 23 2 -13 2 -33
0 -45z m5730 0 c-3 -8 -6 -5 -6 6 -1 11 2 17 5 13 3 -3 4 -12 1 -19z m13 -58
c0 -5 -8 -10 -17 -10 -15 0 -16 2 -3 10 19 12 20 12 20 0z m-5717 -7 c-7 -2
-19 -2 -25 0 -7 3 -2 5 12 5 14 0 19 -2 13 -5z m1865 0 c-340 -2 -896 -2
-1235 0 -340 1 -62 2 617 2 679 0 957 -1 618 -2z m875 0 c-46 -2 -120 -2 -165
0 -46 1 -9 3 82 3 91 0 128 -2 83 -3z m140 0 c-7 -2 -21 -2 -30 0 -10 3 -4 5
12 5 17 0 24 -2 18 -5z m125 0 c-21 -2 -55 -2 -75 0 -21 2 -4 4 37 4 41 0 58
-2 38 -4z m480 0 c-82 -2 -214 -2 -295 0 -82 1 -15 3 147 3 162 0 229 -2 148
-3z m220 0 c-10 -2 -28 -2 -40 0 -13 2 -5 4 17 4 22 1 32 -1 23 -4z m265 0
c-46 -2 -120 -2 -165 0 -46 1 -9 3 82 3 91 0 128 -2 83 -3z m350 0 c-45 -2
-122 -2 -170 0 -48 1 -11 3 82 3 94 0 133 -2 88 -3z m154 1 c-3 -3 -12 -4 -19
-1 -8 3 -5 6 6 6 11 1 17 -2 13 -5z m326 -1 c-56 -2 -151 -2 -210 0 -59 1 -13
3 102 3 116 0 164 -2 108 -3z m510 0 c-72 -2 -194 -2 -270 0 -76 1 -16 3 132
3 149 0 211 -2 138 -3z m315 0 c-32 -2 -86 -2 -120 0 -35 2 -9 3 57 3 66 0 94
-1 63 -3z"/>
<path d="M1739 2587 c-43 -28 -79 -98 -79 -154 0 -105 97 -230 214 -277 l66
-26 3193 0 3192 0 50 24 c68 32 135 94 169 156 25 45 28 62 27 127 -2 87 -18
125 -64 153 -32 20 -77 20 -3383 20 l-3351 0 -34 -23z m1074 6 c-189 -2 -497
-2 -686 0 -188 1 -34 2 343 2 377 0 531 -1 343 -2z m639 0 c-51 -2 -132 -2
-180 0 -48 1 -6 3 93 3 99 0 138 -2 87 -3z m521 0 c-79 -2 -207 -2 -285 0 -79
1 -15 3 142 3 157 0 221 -2 143 -3z m195 0 c-10 -2 -26 -2 -35 0 -10 3 -2 5
17 5 19 0 27 -2 18 -5z m90 0 c-10 -2 -26 -2 -35 0 -10 3 -2 5 17 5 19 0 27
-2 18 -5z m680 0 c-119 -2 -317 -2 -440 0 -123 1 -25 2 217 2 242 0 342 -1
223 -2z m835 0 c-111 -2 -295 -2 -410 0 -114 1 -23 2 202 2 226 0 319 -1 208
-2z m550 0 c-62 -2 -165 -2 -230 0 -65 1 -14 3 112 3 127 0 180 -2 118 -3z
m1055 0 c-169 -2 -448 -2 -620 0 -172 1 -34 2 307 2 341 0 482 -1 313 -2z
m880 0 c-97 -2 -259 -2 -360 0 -101 1 -21 2 177 2 198 0 280 -1 183 -2z m283
-55 c11 -21 11 -22 -4 -9 -10 7 -17 17 -17 22 0 15 9 10 21 -13z m16 -120 c-2
-13 -4 -3 -4 22 0 25 2 35 4 23 2 -13 2 -33 0 -45z m0 -50 c-3 -8 -6 -5 -6 6
-1 11 2 17 5 13 3 -3 4 -12 1 -19z m-6847 -43 c0 -5 -5 -3 -10 5 -5 8 -10 20
-10 25 0 6 5 3 10 -5 5 -8 10 -19 10 -25z"/>
</g>
</svg>
